<svg width="40" height="40" viewBox="0 0 40 40" fill="none" xmlns="http://www.w3.org/2000/svg">
<path d="M8.33333 10C8.33333 9.55797 8.50893 9.13405 8.82149 8.82149C9.13405 8.50893 9.55797 8.33333 10 8.33333H13.3333C13.7754 8.33333 14.1993 8.15774 14.5118 7.84518C14.8244 7.53262 15 7.10869 15 6.66667C15 6.22464 14.8244 5.80072 14.5118 5.48816C14.1993 5.17559 13.7754 5 13.3333 5H10C8.67392 5 7.40215 5.52678 6.46447 6.46447C5.52678 7.40215 5 8.67392 5 10V13.3333C5 13.7754 5.17559 14.1993 5.48816 14.5118C5.80072 14.8244 6.22464 15 6.66667 15C7.10869 15 7.53262 14.8244 7.84518 14.5118C8.15774 14.1993 8.33333 13.7754 8.33333 13.3333V10ZM8.33333 30C8.33333 30.442 8.50893 30.866 8.82149 31.1785C9.13405 31.4911 9.55797 31.6667 10 31.6667H13.3333C13.7754 31.6667 14.1993 31.8423 14.5118 32.1548C14.8244 32.4674 15 32.8913 15 33.3333C15 33.7754 14.8244 34.1993 14.5118 34.5118C14.1993 34.8244 13.7754 35 13.3333 35H10C8.67392 35 7.40215 34.4732 6.46447 33.5355C5.52678 32.5979 5 31.3261 5 30V26.6667C5 26.2246 5.17559 25.8007 5.48816 25.4882C5.80072 25.1756 6.22464 25 6.66667 25C7.10869 25 7.53262 25.1756 7.84518 25.4882C8.15774 25.8007 8.33333 26.2246 8.33333 26.6667V30ZM30 8.33333C30.442 8.33333 30.866 8.50893 31.1785 8.82149C31.4911 9.13405 31.6667 9.55797 31.6667 10V13.3333C31.6667 13.7754 31.8423 14.1993 32.1548 14.5118C32.4674 14.8244 32.8913 15 33.3333 15C33.7754 15 34.1993 14.8244 34.5118 14.5118C34.8244 14.1993 35 13.7754 35 13.3333V10C35 8.67392 34.4732 7.40215 33.5355 6.46447C32.5979 5.52678 31.3261 5 30 5H26.6667C26.2246 5 25.8007 5.17559 25.4882 5.48816C25.1756 5.80072 25 6.22464 25 6.66667C25 7.10869 25.1756 7.53262 25.4882 7.84518C25.8007 8.15774 26.2246 8.33333 26.6667 8.33333H30ZM31.6667 30C31.6667 30.442 31.4911 30.866 31.1785 31.1785C30.866 31.4911 30.442 31.6667 30 31.6667H26.6667C26.2246 31.6667 25.8007 31.8423 25.4882 32.1548C25.1756 32.4674 25 32.8913 25 33.3333C25 33.7754 25.1756 34.1993 25.4882 34.5118C25.8007 34.8244 26.2246 35 26.6667 35H30C31.3261 35 32.5979 34.4732 33.5355 33.5355C34.4732 32.5979 35 31.3261 35 30V26.6667C35 26.2246 34.8244 25.8007 34.5118 25.4882C34.1993 25.1756 33.7754 25 33.3333 25C32.8913 25 32.4674 25.1756 32.1548 25.4882C31.8423 25.8007 31.6667 26.2246 31.6667 26.6667V30Z" fill="#696969"/>
</svg>
