<svg width="40" height="40" viewBox="0 0 40 40" fill="none" xmlns="http://www.w3.org/2000/svg">
<path d="M28.75 10C28.75 10.3315 28.8817 10.6495 29.1161 10.8839C29.3505 11.1183 29.6685 11.25 30 11.25H34.375C34.8723 11.25 35.3492 11.4475 35.7008 11.7992C36.0525 12.1508 36.25 12.6277 36.25 13.125C36.25 13.6223 36.0525 14.0992 35.7008 14.4508C35.3492 14.8025 34.8723 15 34.375 15H30C28.6739 15 27.4021 14.4732 26.4645 13.5355C25.5268 12.5979 25 11.3261 25 10V5.625C25 5.12772 25.1975 4.65081 25.5492 4.29917C25.9008 3.94754 26.3777 3.75 26.875 3.75C27.3723 3.75 27.8492 3.94754 28.2008 4.29917C28.5525 4.65081 28.75 5.12772 28.75 5.625V10ZM28.75 30C28.75 29.6685 28.8817 29.3505 29.1161 29.1161C29.3505 28.8817 29.6685 28.75 30 28.75H34.375C34.8723 28.75 35.3492 28.5525 35.7008 28.2008C36.0525 27.8492 36.25 27.3723 36.25 26.875C36.25 26.3777 36.0525 25.9008 35.7008 25.5492C35.3492 25.1975 34.8723 25 34.375 25H30C28.6739 25 27.4021 25.5268 26.4645 26.4645C25.5268 27.4021 25 28.6739 25 30V34.375C25 34.8723 25.1975 35.3492 25.5492 35.7008C25.9008 36.0525 26.3777 36.25 26.875 36.25C27.3723 36.25 27.8492 36.0525 28.2008 35.7008C28.5525 35.3492 28.75 34.8723 28.75 34.375V30ZM10 28.75C10.3315 28.75 10.6495 28.8817 10.8839 29.1161C11.1183 29.3505 11.25 29.6685 11.25 30V34.375C11.25 34.8723 11.4475 35.3492 11.7992 35.7008C12.1508 36.0525 12.6277 36.25 13.125 36.25C13.6223 36.25 14.0992 36.0525 14.4508 35.7008C14.8025 35.3492 15 34.8723 15 34.375V30C15 28.6739 14.4732 27.4021 13.5355 26.4645C12.5979 25.5268 11.3261 25 10 25H5.625C5.12772 25 4.65081 25.1975 4.29917 25.5492C3.94754 25.9008 3.75 26.3777 3.75 26.875C3.75 27.3723 3.94754 27.8492 4.29917 28.2008C4.65081 28.5525 5.12772 28.75 5.625 28.75H10ZM11.25 10C11.25 10.3315 11.1183 10.6495 10.8839 10.8839C10.6495 11.1183 10.3315 11.25 10 11.25H5.625C5.12772 11.25 4.65081 11.4475 4.29917 11.7992C3.94754 12.1508 3.75 12.6277 3.75 13.125C3.75 13.6223 3.94754 14.0992 4.29917 14.4508C4.65081 14.8025 5.12772 15 5.625 15H10C11.3261 15 12.5979 14.4732 13.5355 13.5355C14.4732 12.5979 15 11.3261 15 10V5.625C15 5.12772 14.8025 4.65081 14.4508 4.29917C14.0992 3.94754 13.6223 3.75 13.125 3.75C12.6277 3.75 12.1508 3.94754 11.7992 4.29917C11.4475 4.65081 11.25 5.12772 11.25 5.625V10Z" fill="#696969"/>
</svg>
